<svg width="1970" height="1426" viewBox="0 0 1970 1426" fill="none" xmlns="http://www.w3.org/2000/svg">
  <path d="M38 1149.5V1425.5L1543.5 1426V1044H1617.5V979H1270.5V883.5H1312.5V854.5H966V883.5H1009.5V1083L614 1087.5V997.5H643.5V969H254.5V997.5H282V1087.5H0V1149.5H38Z" fill="#925EE6" fill-opacity="0.15" />
  <rect x="343" y="426" width="838" height="1000" fill="#EFEFEF" />
  <rect x="346" y="429" width="832" height="994" stroke="black" stroke-opacity="0.74" stroke-width="6" />
  <rect x="395" y="1282" width="730" height="144" fill="#BC9FEB" />
  <path d="M395 1423L1125 1423" stroke="#3E3E3E" stroke-width="6" />
  <rect x="395" y="567" width="17" height="56" fill="#C9B5E9" />
  <rect x="395" y="632" width="17" height="56" fill="#C9B5E9" />
  <rect x="395" y="697" width="17" height="56" fill="#C9B5E9" />
  <rect x="395" y="762" width="17" height="56" fill="#C9B5E9" />
  <rect x="395" y="827" width="17" height="56" fill="#C9B5E9" />
  <rect x="418" y="883" width="17" height="56" transform="rotate(-90 418 883)" fill="#C9B5E9" />
  <rect x="418" y="584" width="17" height="56" transform="rotate(-90 418 584)" fill="#C9B5E9" />
  <rect x="484" y="584" width="17" height="56" transform="rotate(-90 484 584)" fill="#C9B5E9" />
  <rect x="548" y="584" width="17" height="56" transform="rotate(-90 548 584)" fill="#C9B5E9" />
  <rect x="612" y="584" width="17" height="56" transform="rotate(-90 612 584)" fill="#C9B5E9" />
  <rect x="676" y="584" width="17" height="56" transform="rotate(-90 676 584)" fill="#C9B5E9" />
  <rect x="740" y="584" width="17" height="56" transform="rotate(-90 740 584)" fill="#C9B5E9" />
  <rect x="804" y="584" width="17" height="56" transform="rotate(-90 804 584)" fill="#C9B5E9" />
  <rect x="868" y="584" width="17" height="56" transform="rotate(-90 868 584)" fill="#C9B5E9" />
  <rect x="932" y="584" width="17" height="56" transform="rotate(-90 932 584)" fill="#C9B5E9" />
  <rect x="996" y="584" width="17" height="56" transform="rotate(-90 996 584)" fill="#C9B5E9" />
  <rect x="1060" y="584" width="17" height="56" transform="rotate(-90 1060 584)" fill="#C9B5E9" />
  <rect x="483" y="883" width="17" height="56" transform="rotate(-90 483 883)" fill="#C9B5E9" />
  <rect x="548" y="883" width="17" height="56" transform="rotate(-90 548 883)" fill="#C9B5E9" />
  <rect x="613" y="883" width="17" height="56" transform="rotate(-90 613 883)" fill="#C9B5E9" />
  <rect x="678" y="883" width="17" height="56" transform="rotate(-90 678 883)" fill="#C9B5E9" />
  <rect x="743" y="883" width="17" height="56" transform="rotate(-90 743 883)" fill="#C9B5E9" />
  <rect x="808" y="883" width="17" height="56" transform="rotate(-90 808 883)" fill="#C9B5E9" />
  <rect x="873" y="883" width="17" height="56" transform="rotate(-90 873 883)" fill="#C9B5E9" />
  <rect x="938" y="883" width="17" height="56" transform="rotate(-90 938 883)" fill="#C9B5E9" />
  <rect x="1003" y="883" width="17" height="56" transform="rotate(-90 1003 883)" fill="#C9B5E9" />
  <rect x="1068" y="883" width="17" height="56" transform="rotate(-90 1068 883)" fill="#C9B5E9" />
  <rect x="1107" y="799" width="17" height="56" fill="#C9B5E9" />
  <rect x="1107" y="732" width="17" height="56" fill="#C9B5E9" />
  <rect x="1107" y="665" width="17" height="56" fill="#C9B5E9" />
  <rect x="1107" y="598" width="17" height="56" fill="#C9B5E9" />
  <rect x="395" y="920" width="347" height="158" fill="#BC9FEB" />
  <rect x="777" y="920" width="347" height="158" fill="#BC9FEB" />
  <rect x="774" y="1093" width="347" height="22" fill="#D9CCEE" />
  <rect x="774" y="1130" width="347" height="22" fill="#D9CCEE" />
  <rect x="774" y="1167" width="283" height="22" fill="#D9CCEE" />
  <rect x="395" y="1093" width="347" height="22" fill="#D9CCEE" />
  <rect x="395" y="1130" width="347" height="22" fill="#D9CCEE" />
  <rect x="395" y="1167" width="283" height="22" fill="#D9CCEE" />
  <rect x="395" y="1204" width="234" height="22" fill="#D9CCEE" />
  <path d="M790 505L892 353.5L997.5 505" stroke="#614E81" stroke-width="9" stroke-linecap="square" stroke-linejoin="bevel" />
  <path d="M891.5 214.5V314" stroke="#614E81" stroke-width="10" stroke-linecap="square" stroke-linejoin="bevel" />
  <circle cx="892" cy="334" r="21" fill="#925EE6" stroke="#614E81" stroke-width="2" />
  <g filter="url(#filter0_d_440_522)">
    <rect x="523" y="502" width="731" height="316" fill="#A277E7" />
    <rect x="524.5" y="503.5" width="728" height="313" stroke="black" stroke-width="3" />
  </g>
  <rect x="792.5" y="187.5" width="199" height="29" fill="#614E81" stroke="#242424" />
  <path d="M572.5 158L654.5 76.5M654.5 76.5L654 158M654.5 76.5H788M654.5 76.5L788 158V76.5M1177.5 76.5V158L1048 76V158L913.5 76.5M1177.5 76.5H913.5M1177.5 76.5L1306 158M913.5 76.5V158L788 76.5M913.5 76.5H788" stroke="#614E81" stroke-width="5" stroke-linecap="square" stroke-linejoin="bevel" />
  <path d="M1606 158L1684 81M1684 81H1812M1684 81L1812 158V81M1684 81V158.5M1812 81L1931.5 157.5" stroke="#614E81" stroke-width="5" stroke-linecap="square" stroke-linejoin="bevel" />
  <path d="M569 159H1954C1962.28 159 1969 165.716 1969 174C1969 182.284 1962.28 189 1954 189H569V159Z" fill="#614E81" stroke="#242424" stroke-width="2" />
  <path d="M1575 415L1402 569.5L1577.5 726L1402 881L1577 1038L1402.5 1193L1576 1349.5H1401.5L1576.5 1193L1402.5 1037L1576.5 881L1403 726L1576 569.5L1403.5 415" stroke="#614E81" stroke-width="5" stroke-linecap="square" stroke-linejoin="bevel" />
  <rect x="1308" y="189" width="362" height="167" fill="#8C5ADC" stroke="#242424" stroke-width="2" />
  <path d="M1342 356H1635V385C1635 401.016 1622.02 414 1606 414H1371C1354.98 414 1342 401.016 1342 385V356Z" fill="#8C5ADC" stroke="#242424" stroke-width="2" />
  <rect x="1386" y="414" width="17" height="935" fill="#8C5ADC" stroke="#242424" stroke-width="2" />
  <path d="M1576 414H1593V1349H1576V414Z" fill="#8C5ADC" stroke="#242424" stroke-width="2" />
  <rect x="1386" y="1349" width="207" height="34" fill="#8C5ADC" stroke="#242424" stroke-width="2" />
  <rect x="1359" y="1382" width="261" height="43" fill="#8C5ADC" stroke="#242424" stroke-width="2" />
  <path d="M1731.11 231L1709.15 189H1931.33L1908.9 231H1731.11Z" fill="#8C5ADC" stroke="#242424" stroke-width="2" />
  <defs>
    <filter id="filter0_d_440_522" x="504" y="502" width="750" height="335" filterUnits="userSpaceOnUse" color-interpolation-filters="sRGB">
      <feFlood flood-opacity="0" result="BackgroundImageFix" />
      <feColorMatrix in="SourceAlpha" type="matrix" values="0 0 0 0 0 0 0 0 0 0 0 0 0 0 0 0 0 0 127 0" result="hardAlpha" />
      <feOffset dx="-15" dy="15" />
      <feGaussianBlur stdDeviation="2" />
      <feComposite in2="hardAlpha" operator="out" />
      <feColorMatrix type="matrix" values="0 0 0 0 0 0 0 0 0 0 0 0 0 0 0 0 0 0 0.25 0" />
      <feBlend mode="normal" in2="BackgroundImageFix" result="effect1_dropShadow_440_522" />
      <feBlend mode="normal" in="SourceGraphic" in2="effect1_dropShadow_440_522" result="shape" />
    </filter>
  </defs>
</svg>