<svg width="123" height="95" viewBox="0 0 123 95" fill="none" xmlns="http://www.w3.org/2000/svg">
<g clip-path="url(#clip0_436_396)">
<path fill-rule="evenodd" clip-rule="evenodd" d="M90.37 26.48H115.85C117.79 26.48 119.56 27.27 120.82 28.54C122.1 29.82 122.88 31.58 122.88 33.51V87.33C122.88 89.27 122.09 91.04 120.82 92.3C119.54 93.58 117.78 94.36 115.85 94.36H90.37C88.43 94.36 86.66 93.57 85.4 92.3C84.12 91.02 83.34 89.26 83.34 87.33V33.5C83.34 31.56 84.13 29.79 85.4 28.53C86.68 27.25 88.43 26.48 90.37 26.48ZM3.05 0H109.17C110.85 0 112.22 1.37 112.22 3.05V21.49H105.74V8.44C105.74 6.96 104.53 5.74 103.04 5.74H9.17C7.69 5.74 6.47 6.95 6.47 8.44V60.97C6.47 62.45 7.68 63.67 9.17 63.67H76.7V76.4H3.05C1.37 76.4 0 75.03 0 73.35V3.05C0 1.37 1.37 0 3.05 0ZM42.27 80.61H69.94C70.01 85.4 71.98 89.68 77.33 93.06H34.89C39.16 89.96 42.29 86.19 42.27 80.61ZM56.11 66.12C58.27 66.12 60.03 67.87 60.03 70.04C60.03 72.2 58.27 73.96 56.11 73.96C53.95 73.96 52.19 72.21 52.19 70.04C52.19 67.88 53.94 66.12 56.11 66.12ZM103.1 85.72C104.69 85.72 105.99 87 105.99 88.61C105.99 90.2 104.71 91.5 103.1 91.5C101.51 91.5 100.21 90.22 100.21 88.61C100.21 87.02 101.49 85.72 103.1 85.72ZM86.3 83.52H119.91V37.37H86.3V83.52Z" fill="#552B9B"/>
</g>
<defs>
<clipPath id="clip0_436_396">
<rect width="122.88" height="94.35" fill="white"/>
</clipPath>
</defs>
</svg>
