<svg width="123" height="92" viewBox="0 0 123 92" fill="none" xmlns="http://www.w3.org/2000/svg">
<path fill-rule="evenodd" clip-rule="evenodd" d="M8.32 0H114.56C119.14 0 122.88 3.74 122.88 8.32V82.94C122.88 87.51 119.14 91.26 114.56 91.26H8.32C3.74 91.26 0 87.51 0 82.94V8.32C0 3.74 3.74 0 8.32 0ZM90.36 36.18L93.98 39.8C94.93 40.75 94.93 42.31 93.98 43.26L91.07 46.17C91.87 47.67 92.49 49.29 92.88 50.99H96.65C98 50.99 99.1 52.09 99.1 53.44V58.55C99.1 59.9 98 61 96.65 61H92.53C92.03 62.67 91.3 64.24 90.4 65.68L93.07 68.35C94.02 69.3 94.02 70.86 93.07 71.81L89.45 75.43C88.5 76.38 86.94 76.38 85.99 75.43L83.08 72.52C81.58 73.32 79.96 73.94 78.26 74.33V78.1C78.26 79.45 77.16 80.55 75.81 80.55H70.7C69.35 80.55 68.25 79.45 68.25 78.1V73.98C66.58 73.48 65.01 72.75 63.57 71.85L60.9 74.52C59.95 75.47 58.39 75.47 57.44 74.52L53.82 70.9C52.87 69.95 52.87 68.39 53.82 67.44L56.73 64.53C55.93 63.03 55.31 61.41 54.92 59.71H51.15C49.8 59.71 48.7 58.61 48.7 57.26V52.15C48.7 50.81 49.8 49.7 51.15 49.7H55.27C55.78 48.03 56.5 46.46 57.4 45.02L54.73 42.35C53.78 41.4 53.78 39.84 54.73 38.89L58.35 35.27C59.3 34.32 60.86 34.32 61.81 35.27L64.72 38.18C66.22 37.38 67.84 36.76 69.54 36.37V32.6C69.54 31.25 70.64 30.15 71.99 30.15H77.1C78.45 30.15 79.55 31.25 79.55 32.6V36.71C81.22 37.21 82.79 37.94 84.23 38.84L86.9 36.17C87.85 35.23 89.4 35.23 90.36 36.18ZM73.89 45.29C79.44 45.29 83.94 49.79 83.94 55.34C83.94 60.89 79.44 65.39 73.89 65.39C68.34 65.39 63.84 60.89 63.84 55.34C63.84 49.79 68.34 45.29 73.89 45.29ZM53.48 23.29V25.74C53.48 26.95 52.49 27.95 51.27 27.95H47.56C47.1 29.45 46.45 30.87 45.64 32.17L48.05 34.58C48.91 35.44 48.91 36.84 48.05 37.7L44.79 40.96C43.93 41.82 42.53 41.82 41.67 40.96L39.05 38.34C37.7 39.06 36.24 39.62 34.71 39.97V43.37C34.71 44.58 33.72 45.58 32.5 45.58H27.89C26.68 45.58 25.68 44.59 25.68 43.37V39.66C24.18 39.2 22.76 38.55 21.46 37.74L19.05 40.15C18.19 41.01 16.79 41.01 15.93 40.15L12.67 36.89C11.81 36.03 11.81 34.63 12.67 33.77L15.29 31.15C14.57 29.8 14.01 28.34 13.66 26.81H10.26C9.05 26.81 8.05 25.82 8.05 24.6V23.31H5.29V83.77C5.29 84.41 5.54 84.97 5.96 85.4C6.38 85.82 6.95 86.07 7.59 86.07H115.63C116.27 86.07 116.83 85.82 117.26 85.4C117.69 84.97 117.93 84.41 117.93 83.77V23.29H117.97H53.48ZM21.72 23.29C21.95 28.09 25.91 31.92 30.77 31.92C35.63 31.92 39.59 28.09 39.82 23.29H21.72ZM106.64 9.35C108.91 9.35 110.75 11.19 110.75 13.46C110.75 15.73 108.91 17.57 106.64 17.57C104.37 17.57 102.53 15.73 102.53 13.46C102.54 11.19 104.38 9.35 106.64 9.35ZM78.8 9.35C81.07 9.35 82.91 11.19 82.91 13.46C82.91 15.73 81.07 17.57 78.8 17.57C76.53 17.57 74.69 15.73 74.69 13.46C74.69 11.19 76.53 9.35 78.8 9.35ZM92.72 9.35C94.99 9.35 96.83 11.19 96.83 13.46C96.83 15.73 94.99 17.57 92.72 17.57C90.45 17.57 88.61 15.73 88.61 13.46C88.61 11.19 90.45 9.35 92.72 9.35Z" fill="#552B9B"/>
</svg>
