<svg width="123" height="92" viewBox="0 0 123 92" fill="none" xmlns="http://www.w3.org/2000/svg">
<path fill-rule="evenodd" clip-rule="evenodd" d="M8.32 0H114.56C119.14 0 122.88 3.74 122.88 8.32V82.94C122.88 87.51 119.14 91.26 114.56 91.26H8.32C3.74 91.26 0 87.51 0 82.94V8.32C0 3.74 3.74 0 8.32 0ZM54.46 72.22L32 58.61V49.98L54.46 36.37V46.63L40.81 54.32L54.46 62.02V72.22ZM68.42 72.22L90.88 58.61V49.98L68.42 36.37V46.63L82.07 54.32L68.42 62.02V72.22ZM117.97 23.29H5.29V83.75C5.29 84.39 5.54 84.95 5.96 85.38C6.38 85.8 6.95 86.05 7.59 86.05H115.63C116.27 86.05 116.83 85.8 117.26 85.38C117.69 84.95 117.93 84.39 117.93 83.75V23.29H117.97ZM106.64 9.35C108.91 9.35 110.75 11.19 110.75 13.46C110.75 15.73 108.91 17.57 106.64 17.57C104.37 17.57 102.53 15.73 102.53 13.46C102.54 11.19 104.38 9.35 106.64 9.35ZM78.8 9.35C81.07 9.35 82.91 11.19 82.91 13.46C82.91 15.73 81.07 17.57 78.8 17.57C76.53 17.57 74.69 15.73 74.69 13.46C74.69 11.19 76.53 9.35 78.8 9.35ZM92.72 9.35C94.99 9.35 96.83 11.19 96.83 13.46C96.83 15.73 94.99 17.57 92.72 17.57C90.45 17.57 88.61 15.73 88.61 13.46C88.61 11.19 90.45 9.35 92.72 9.35Z" fill="#552B9B"/>
</svg>
