<svg width="123" height="123" viewBox="0 0 123 123" fill="none" xmlns="http://www.w3.org/2000/svg">
<g clip-path="url(#clip0_436_412)">
<path d="M61.44 0C78.41 0 93.77 6.88 104.88 18C116 29.12 122.88 44.48 122.88 61.44C122.88 78.4 116 93.77 104.88 104.88C93.76 116 78.4 122.88 61.44 122.88C44.47 122.88 29.11 116 18 104.88C6.88 93.77 0 78.41 0 61.44C0 44.47 6.88 29.11 18 18C29.11 6.88 44.47 0 61.44 0ZM48.1 56.19C50.1 59.79 52.4 63.25 55.39 66.4C58.38 69.57 62.11 72.46 66.94 74.92C67.29 75.1 67.64 75.1 67.94 74.97C68.4 74.79 68.86 74.42 69.33 73.96C69.68 73.61 70.13 73.03 70.6 72.41C72.45 69.97 74.75 66.94 77.99 68.45C78.06 68.48 78.12 68.52 78.19 68.56L89 74.78C89.03 74.8 89.07 74.83 89.11 74.85C90.54 75.83 91.13 77.34 91.14 79.05C91.14 80.8 90.5 82.76 89.56 84.41C88.31 86.6 86.48 88.04 84.36 89.01C82.35 89.93 80.1 90.43 77.95 90.75C74.57 91.25 71.4 90.93 68.15 89.93C64.98 88.95 61.78 87.32 58.3 85.17L58.05 85.01C56.45 84.01 54.72 82.94 53.02 81.68C46.81 77 40.48 70.23 36.37 62.78C32.91 56.52 31.03 49.77 32.05 43.34C32.62 39.81 34.14 36.6 36.77 34.49C39.07 32.64 42.17 31.62 46.18 31.98C46.64 32.01 47.05 32.28 47.27 32.68L54.21 44.4C55.22 45.72 55.35 47.02 54.8 48.32C54.34 49.39 53.41 50.37 52.14 51.3C51.77 51.62 51.32 51.94 50.85 52.28C49.3 53.4 47.53 54.7 48.14 56.24L48.1 56.19ZM98.3 24.58C88.87 15.15 75.83 9.31 61.44 9.31C47.05 9.31 34.01 15.14 24.58 24.58C15.15 34.01 9.31 47.05 9.31 61.44C9.31 75.83 15.14 88.87 24.58 98.3C34.02 107.73 47.04 113.57 61.44 113.57C75.83 113.57 88.87 107.74 98.3 98.3C107.73 88.87 113.57 75.84 113.57 61.44C113.57 47.05 107.73 34.01 98.3 24.58Z" fill="white"/>
</g>
<defs>
<clipPath id="clip0_436_412">
<rect width="122.88" height="122.88" fill="white"/>
</clipPath>
</defs>
</svg>
