<?xml version="1.0" encoding="utf-8"?><svg version="1.1" id="Layer_1" xmlns="http://www.w3.org/2000/svg" xmlns:xlink="http://www.w3.org/1999/xlink" x="0px" y="0px" viewBox="0 0 122.88 122.88" style="enable-background:new 0 0 122.88 122.88" xml:space="preserve"><style type="text/css"><![CDATA[
	.st0{fill:#FFFFFF;}
	.st1{fill:#6FDA44;}
]]></style><g><path class="st1" d="M18.43,0h86.02c10.18,0,18.43,8.25,18.43,18.43v86.02c0,10.18-8.25,18.43-18.43,18.43H18.43 C8.25,122.88,0,114.63,0,104.45l0-86.02C0,8.25,8.25,0,18.43,0L18.43,0z"/><path class="st0" d="M85.73,71.26c-4.08,0-7.92-1.73-11.38-4.54l0.84-3.98l0.02-0.14c0.77-4.22,3.14-11.33,10.51-11.33 c5.52,0,10.01,4.49,10.01,10.01C95.74,66.79,91.25,71.26,85.73,71.26L85.73,71.26L85.73,71.26z M85.73,41.14 c-9.41,0-16.68,6.1-19.66,16.15c-4.51-6.79-7.94-14.93-9.94-21.79H46.01v26.33c0,5.21-4.22,9.43-9.43,9.43 c-5.21,0-9.43-4.22-9.43-9.43V35.47h-10.1V61.8c0,10.78,8.76,19.63,19.54,19.63s19.54-8.86,19.54-19.63v-4.42 c1.97,4.1,4.37,8.26,7.3,11.9l-6.19,29.14h10.34l4.49-21.12c3.94,2.52,8.45,4.1,13.63,4.1c11.09,0,20.11-9.07,20.11-20.18 C105.82,50.16,96.82,41.14,85.73,41.14L85.73,41.14z"/></g></svg>