<svg width="123" height="101" viewBox="0 0 123 101" fill="none" xmlns="http://www.w3.org/2000/svg">
<g clip-path="url(#clip0_436_421)">
<path fill-rule="evenodd" clip-rule="evenodd" d="M111.34 93.69C111.199 95.5896 110.346 97.3658 108.952 98.6637C107.558 99.9615 105.725 100.685 103.82 100.69H7.54C5.54706 100.685 3.6368 99.8928 2.22477 98.4864C0.812743 97.08 0.013174 95.1729 0 93.18L0 19.51C0 15.82 3.08 12.74 6.58 12.09V30.18H4.79V93.91C4.78868 94.1848 4.84183 94.4572 4.94639 94.7114C5.05096 94.9655 5.20485 95.1965 5.39919 95.3908C5.59353 95.5851 5.82446 95.739 6.07863 95.8436C6.3328 95.9482 6.60517 96.0013 6.88 96H104.79C105.344 96 105.876 95.7798 106.268 95.3879C106.66 94.9959 106.88 94.4643 106.88 93.91V93.69H111.34ZM22.94 23.94H110.64V61.11H22.94V23.94ZM19.06 0H115.34C117.338 0.00527905 119.253 0.801365 120.666 2.21425C122.079 3.62713 122.875 5.54189 122.88 7.54V81.21C122.875 83.2081 122.079 85.1229 120.666 86.5358C119.253 87.9486 117.338 88.7447 115.34 88.75H19.06C17.0619 88.7447 15.1471 87.9486 13.7342 86.5358C12.3214 85.1229 11.5253 83.2081 11.52 81.21V7.54C11.5253 5.54189 12.3214 3.62713 13.7342 2.21425C15.1471 0.801365 17.0619 0.00527905 19.06 0V0ZM118.43 18.22H16.31V82C16.3283 82.5403 16.5571 83.0519 16.9477 83.4257C17.3382 83.7994 17.8595 84.0055 18.4 84H116.31C116.849 84.0029 117.368 83.7956 117.756 83.4222C118.144 83.0487 118.372 82.5385 118.39 82V18.22H118.43ZM108.16 6.54C108.898 6.53802 109.62 6.7551 110.235 7.16375C110.85 7.5724 111.329 8.15426 111.613 8.83565C111.897 9.51704 111.972 10.2673 111.83 10.9915C111.687 11.7157 111.332 12.3813 110.811 12.904C110.29 13.4266 109.625 13.7828 108.901 13.9276C108.178 14.0723 107.427 13.999 106.745 13.717C106.063 13.435 105.48 12.9569 105.069 12.3433C104.659 11.7297 104.44 11.0082 104.44 10.27C104.44 9.28247 104.832 8.33525 105.529 7.63602C106.226 6.9368 107.172 6.54265 108.16 6.54ZM82.93 6.54C83.6681 6.53802 84.3903 6.7551 85.005 7.16375C85.6197 7.5724 86.0993 8.15426 86.3832 8.83565C86.667 9.51704 86.7423 10.2673 86.5995 10.9915C86.4567 11.7157 86.1023 12.3813 85.581 12.904C85.0598 13.4266 84.3952 13.7828 83.6714 13.9276C82.9475 14.0723 82.1971 13.999 81.5149 13.717C80.8328 13.435 80.2496 12.9569 79.8393 12.3433C79.429 11.7297 79.21 11.0082 79.21 10.27C79.21 9.28247 79.6016 8.33525 80.299 7.63602C80.9963 6.9368 81.9425 6.54265 82.93 6.54ZM95.55 6.54C96.2877 6.54 97.0089 6.75876 97.6223 7.16862C98.2357 7.57848 98.7138 8.16102 98.9961 8.84259C99.2784 9.52416 99.3522 10.2741 99.2083 10.9977C99.0644 11.7212 98.7092 12.3859 98.1875 12.9075C97.6659 13.4292 97.0012 13.7844 96.2777 13.9283C95.5541 14.0723 94.8042 13.9984 94.1226 13.7161C93.441 13.4338 92.8585 12.9557 92.4486 12.3423C92.0388 11.7289 91.82 11.0077 91.82 10.27C91.82 9.78017 91.9165 9.29513 92.1039 8.84259C92.2914 8.39005 92.5661 7.97885 92.9125 7.63249C93.2589 7.28613 93.67 7.01138 94.1226 6.82393C94.5751 6.63648 95.0602 6.54 95.55 6.54ZM72.12 74.33C71.3228 74.2666 70.5786 73.9052 70.036 73.3177C69.4933 72.7302 69.192 71.9598 69.192 71.16C69.192 70.3602 69.4933 69.5898 70.036 69.0023C70.5786 68.4148 71.3228 68.0534 72.12 67.99H108.05C108.847 68.0534 109.591 68.4148 110.134 69.0023C110.677 69.5898 110.978 70.3602 110.978 71.16C110.978 71.9598 110.677 72.7302 110.134 73.3177C109.591 73.9052 108.847 74.2666 108.05 74.33H72.12ZM25.12 74.33C24.3227 74.2666 23.5786 73.9052 23.036 73.3177C22.4933 72.7302 22.192 71.9598 22.192 71.16C22.192 70.3602 22.4933 69.5898 23.036 69.0023C23.5786 68.4148 24.3227 68.0534 25.12 67.99H58.39C59.1873 68.0534 59.9314 68.4148 60.474 69.0023C61.0167 69.5898 61.318 70.3602 61.318 71.16C61.318 71.9598 61.0167 72.7302 60.474 73.3177C59.9314 73.9052 59.1873 74.2666 58.39 74.33H25.12Z" fill="#552B9B"/>
</g>
<defs>
<clipPath id="clip0_436_421">
<rect width="122.88" height="100.72" fill="white"/>
</clipPath>
</defs>
</svg>
