<svg id="Layer_1" data-name="Layer 1" xmlns="http://www.w3.org/2000/svg" viewBox="0 0 122.88 100.72"><defs><style>.cls-1{fill-rule:evenodd;}</style></defs><title>web-pages</title><path class="cls-1" d="M111.34,93.69a7.56,7.56,0,0,1-7.52,7H7.54A7.56,7.56,0,0,1,0,93.18V19.51c0-3.69,3.08-6.77,6.58-7.42V30.18H4.79V93.91A2.08,2.08,0,0,0,6.88,96h97.91a2.09,2.09,0,0,0,2.09-2.09v-.22ZM22.94,23.94h87.7V61.11H22.94V23.94ZM19.06,0h96.28a7.56,7.56,0,0,1,7.54,7.54V81.21a7.56,7.56,0,0,1-7.54,7.54H19.06a7.56,7.56,0,0,1-7.54-7.54V7.54A7.56,7.56,0,0,1,19.06,0Zm99.37,18.22H16.31V82A2.07,2.07,0,0,0,18.4,84h97.91A2.07,2.07,0,0,0,118.39,82V18.22ZM108.16,6.54a3.73,3.73,0,1,1-3.72,3.73,3.73,3.73,0,0,1,3.72-3.73Zm-25.23,0a3.73,3.73,0,1,1-3.72,3.73,3.73,3.73,0,0,1,3.72-3.73Zm12.62,0a3.73,3.73,0,1,1-3.73,3.73,3.73,3.73,0,0,1,3.73-3.73ZM72.12,74.33a3.18,3.18,0,0,1,0-6.34h35.93a3.18,3.18,0,0,1,0,6.34Zm-47,0a3.18,3.18,0,0,1,0-6.34H58.39a3.18,3.18,0,0,1,0,6.34Z"/></svg>